<svg width="320" height="65" fill="none" xmlns="http://www.w3.org/2000/svg"><path fill-rule="evenodd" clip-rule="evenodd" d="M74 18H79.4087L87.7706 42.3714H88.6145L97.2578 18H102.59L91.7982 47.57H84.4591L74 18ZM123.687 47.57L112.601 34.899H111.323V47.57H106.349V18H111.335V30.0323H112.614L123.098 18H129.312L116.718 32.2549L130.323 47.5828L123.687 47.57ZM147.136 47.57V37.9646H152.647C158.784 37.9646 163.349 33.8388 163.349 27.976C163.349 22.113 158.784 18 152.647 18H142.149V47.57H147.136ZM157.765 25.8028C158.038 26.476 158.168 27.1988 158.145 27.9249C158.17 28.6519 158.042 29.376 157.769 30.0508C157.497 30.7255 157.086 31.3357 156.563 31.8423C156.041 32.3489 155.418 32.7404 154.734 32.9919C154.051 33.2433 153.323 33.3492 152.596 33.3025H147.136V22.56H152.596C153.321 22.5134 154.049 22.6188 154.731 22.8695C155.414 23.1202 156.036 23.5107 156.559 24.0158C157.081 24.5209 157.492 25.1296 157.765 25.8028ZM187.872 37.9646H170.279C170.438 39.5718 171.214 41.055 172.444 42.1028C173.674 43.1506 175.263 43.6818 176.876 43.5847C177.959 43.6365 179.038 43.4226 180.019 42.9618C180.999 42.5008 181.852 41.8069 182.502 40.9408L187.028 41.6943C185.392 45.8458 181.109 47.9915 176.582 47.9915C175.077 48.0509 173.576 47.7984 172.173 47.2499C170.77 46.7017 169.496 45.8693 168.431 44.805C167.366 43.741 166.532 42.4681 165.983 41.0666C165.435 39.6653 165.182 38.1655 165.241 36.6617C165.303 33.7199 166.509 30.9176 168.602 28.8479C170.696 26.7781 173.513 25.6031 176.458 25.5716C179.404 25.5401 182.245 26.6545 184.383 28.6791C186.52 30.7034 187.785 33.4793 187.911 36.419C187.948 36.9808 187.912 37.445 187.875 37.9307L187.872 37.9646ZM170.611 34.1964H182.707C182.359 32.862 181.578 31.6802 180.486 30.8367C179.394 29.9929 178.052 29.535 176.672 29.5342C175.281 29.5066 173.923 29.9534 172.821 30.8011C171.719 31.6487 170.94 32.8465 170.611 34.1964ZM196.516 38.8843H197.692L205.197 47.57H211.59L201.554 36.2402L210.747 25.7534H204.993L197.692 34.2347H196.516V25.7534H191.683V47.57H196.516V38.8843ZM234.669 25.7534V47.57H229.836V30.16H223.162L222.701 39.3441C222.408 44.7216 219.761 47.7744 215.401 47.7744C214.756 47.7689 214.111 47.7303 213.47 47.6594L212.997 43.0355H214.813C216.948 43.0355 217.74 42.0264 217.92 39.3824L218.712 25.7023L234.669 25.7534ZM257.862 47.57V35.3205C257.862 28.985 254.412 25.3702 248.836 25.268C244.59 25.268 240.858 27.3883 239.758 31.2204L244.207 31.9739C244.626 31.1846 245.259 30.5278 246.03 30.0764C246.804 29.6253 247.687 29.3979 248.579 29.4192C251.227 29.4192 252.775 31.3098 252.99 34.171H248.286C241.868 34.171 238.671 36.9427 238.671 41.0046C238.671 45.0664 241.817 47.9661 246.266 47.9661C247.667 47.9908 249.052 47.6504 250.284 46.9786C251.514 46.3068 252.549 45.3263 253.286 44.1342L254.295 47.57H257.862ZM248.453 37.9646H253.029C253.029 41.5283 250.83 43.9168 247.379 43.9168C245.051 43.9168 243.542 42.7036 243.542 40.8129C243.542 39.1396 244.757 37.9646 248.453 37.9646ZM262.977 25.7534H270.495L275.534 40.6981H276.211L281.517 25.7534H288.87V47.57H284.252V31.3864H283.576L277.809 47.57H273.73L268.271 31.3864H267.606V47.57H262.977V25.7534ZM312 47.57V35.3205C312 28.985 308.547 25.3702 302.933 25.268C298.689 25.268 294.957 27.3883 293.856 31.2204L298.306 31.9739C298.725 31.1846 299.356 30.5278 300.129 30.0764C300.9 29.6253 301.783 29.3979 302.678 29.4192C305.324 29.4192 306.871 31.3098 307.089 34.171H302.372C295.953 34.171 292.757 36.9427 292.757 41.0046C292.757 45.0664 295.902 47.9661 300.35 47.9661C301.754 47.9908 303.139 47.6504 304.368 46.9786C305.6 46.3068 306.633 45.3263 307.371 44.1342L308.367 47.57H312ZM302.588 37.9646H307.167C307.167 41.5283 304.902 43.9168 301.514 43.9168C299.188 43.9168 297.68 42.7036 297.68 40.8129C297.68 39.1396 298.892 37.9646 302.588 37.9646Z" fill="#FEFEFE"/><path d="M0 31.0484C0 17.8278 0 11.2045 4.03911 7.10874C8.06548 3 14.5765 3 27.573 3H30.427C43.4236 3 49.9218 3 53.9609 7.10874C58 11.2175 58 17.8278 58 31.0484V33.9516C58 47.1723 58 53.7825 53.9609 57.8911C49.9218 62 43.4236 62 30.427 62H27.573C14.5765 62 8.07823 62 4.03911 57.8911C0 53.7825 0 47.1723 0 33.9516V31.0484Z" fill="#0077FF"/><path d="M29 51C39.4933 51 48 42.4934 48 32C48 21.5066 39.4933 13 29 13C18.5066 13 10 21.5066 10 32C10 42.4934 18.5066 51 29 51Z" fill="#00D9ED"/><path fill-rule="evenodd" clip-rule="evenodd" d="M46.1016 10.3643V14.0521H49.6811C51.7193 14.0521 52.7638 16.5366 51.3497 18.0246L46.4455 23.2265C46.0122 23.6923 45.4008 23.9511 44.7768 23.9511H40.1398L35.3375 29.2046C35.6812 30.0457 35.8852 30.9775 35.8852 31.9479C35.8852 35.8428 32.7769 39 28.9425 39C25.1083 39 22 35.8428 22 31.9479C22 28.053 25.1083 24.8957 28.9425 24.8957C29.5923 24.8957 30.2293 24.9863 30.8279 25.1545L36.3438 19.1245V15.2555C36.3438 14.6085 36.6113 13.9874 37.0699 13.5475L42.1909 8.64327C43.6684 7.23283 46.0888 8.29388 46.0888 10.3513L46.1016 10.3643Z" fill="white"/></svg>