<svg width="320" height="65" fill="none" xmlns="http://www.w3.org/2000/svg"><g clip-path="url(#clip0_2019_5100)"><path fill-rule="evenodd" clip-rule="evenodd" d="M119.787 17.8749C123.596 17.8411 127.703 19.0381 130.555 21.7654L128.05 25.7331C125.986 23.9863 122.904 22.6985 120.077 22.7242C113.686 22.7811 110.369 27.4556 110.417 32.8398C110.466 38.3066 113.992 43.2479 120.303 43.1897C123.415 43.1626 126.514 41.6135 128.707 39.4143L131.526 43.2127C129.051 45.7829 125.343 47.9943 120.14 48.0417C111.005 48.1229 105.047 41.5606 104.969 32.9712C104.894 24.5049 111.021 17.9562 119.787 17.8763M142.06 43.856C144.969 43.8302 146.827 40.8538 146.804 38.3066L146.798 37.7311L145.898 37.7392C143.276 37.7622 138.855 38.1725 138.882 41.1314C138.895 42.5289 139.972 43.8763 142.06 43.856ZM145.825 34.1642L146.725 34.1561L146.722 33.8676C146.698 31.1146 144.928 30.1843 142.757 30.2046C140.709 30.2222 138.627 31.1051 136.959 32.2711L134.999 28.5485C136.707 27.1361 140.056 25.9132 143.169 25.8848C148.617 25.8361 151.88 28.8477 151.928 34.1493L152.046 47.2603L147.211 47.3037L147.196 45.5365C147.19 45.027 147.226 44.5179 147.305 44.0144H147.224C145.974 46.2461 143.489 47.8304 140.663 47.8562C136.894 47.89 133.759 45.4525 133.724 41.6311C133.668 35.3423 141.196 34.2048 145.825 34.1642ZM157.109 18.032L162.27 17.986L162.467 39.849C162.488 42.1511 163.272 42.7198 164.622 42.7063C164.828 42.7063 165.113 42.7036 165.4 42.6589L165.441 47.2211C165.073 47.2657 164.5 47.3538 163.803 47.3592C160.937 47.3863 157.366 46.6767 157.312 40.6777L157.109 18.032ZM168.947 17.925L174.109 17.8776L174.304 39.742C174.324 42.0441 175.11 42.6128 176.461 42.5993C176.664 42.5993 176.953 42.5952 177.239 42.5519L177.279 47.1141C176.911 47.1588 176.338 47.2454 175.642 47.2522C172.775 47.2793 169.204 46.5697 169.15 40.5707L168.947 17.925ZM181.923 30.4673L179.22 30.4917L179.182 26.3398L182.008 26.3154L181.954 20.3138L187.035 20.2691L187.087 26.268L191.841 26.2261L191.877 30.3766L187.124 30.4186L187.199 38.5977C187.23 42.0508 189.938 42.5194 191.372 42.5058C191.658 42.5045 191.904 42.5018 192.313 42.4165L192.354 46.9773C191.945 47.022 191.453 47.1087 190.757 47.1154C187.849 47.1425 182.065 46.33 182.003 39.3019L181.923 30.4673ZM206.287 42.8241C209.686 42.7929 212.489 40.1374 212.454 36.232C212.42 32.3686 209.569 29.7239 206.169 29.755C202.769 29.7848 200.008 32.4823 200.043 36.3444C200.078 40.2498 202.888 42.8539 206.287 42.8241ZM206.088 25.3147C212.479 25.2578 217.639 29.774 217.697 36.1846C217.755 42.6372 212.676 47.2048 206.326 47.2617C199.976 47.3186 194.816 42.8444 194.757 36.3918C194.701 29.9812 199.779 25.3729 206.088 25.3147ZM221.699 25.6681L226.901 25.6207L227.014 38.033C227.035 40.5802 227.707 42.3014 230.288 42.277C234.057 42.2445 236.115 38.8956 236.081 35.1554L235.996 25.5395L241.157 25.4921L241.346 46.4519L236.348 46.4966L236.326 44.032C236.318 43.2506 236.435 42.5912 236.435 42.5912L236.353 42.5925C235.389 44.7389 232.707 47.0233 229.142 47.0558C224.637 47.0965 221.871 44.8607 221.82 39.1475L221.699 25.6681ZM256.842 24.857C259.668 24.8313 262.871 25.748 264.898 27.9079L262.596 31.5046C261.273 30.2019 259.216 29.2743 257.168 29.2932C253.318 29.3285 250.844 32.2683 250.877 35.8447C250.908 39.3791 253.436 42.3975 257.449 42.361C259.661 42.3406 262.026 41.1693 263.569 39.6337L265.61 43.3143C263.663 45.4281 260.397 46.7728 257.038 46.804C250.116 46.8663 245.648 42.0156 245.593 35.9327C245.539 29.9744 249.918 24.9193 256.842 24.8556M269.142 17.0191L274.345 16.9717L274.437 27.1645C274.446 28.191 274.33 28.9317 274.33 28.9317H274.411C275.417 26.9086 278.02 24.6661 281.625 24.6322C286.253 24.5916 288.937 26.9925 288.987 32.5405L289.109 46.0199L283.906 46.0673L283.794 33.655C283.771 31.1078 283.101 29.3867 280.479 29.4111C276.832 29.4449 274.484 32.4241 274.521 36.4121L274.607 46.1513L269.405 46.1987L269.142 17.0191Z" fill="white"/><path fill-rule="evenodd" clip-rule="evenodd" d="M63.1621 28.225L81.3215 46.1176C89.5711 35.7122 89.5399 20.6891 80.8367 10.1699L63.1621 28.225Z" fill="#1EB0CD"/><path fill-rule="evenodd" clip-rule="evenodd" d="M51.5614 48.7475L58.993 41.2914L66.4233 48.7475H51.5614ZM58.9402 32.5381L35.4766 56.5068C49.5572 67.8074 69.4431 67.4119 82.9672 56.2143L58.9402 32.5381Z" fill="white"/><path fill-rule="evenodd" clip-rule="evenodd" d="M76.8059 6.19915C65.5568 -2.79928 49.124 -1.98543 38.8242 8.53645C28.5244 19.0583 28.0085 35.5575 37.1789 46.6793L76.8059 6.19915Z" fill="#1EB0CD"/></g><defs><clipPath id="clip0_2019_5100"><rect width="258.646" height="65" fill="white" transform="translate(30.6777)"/></clipPath></defs></svg>