<svg width="320" height="65" fill="none" xmlns="http://www.w3.org/2000/svg"><g clip-path="url(#clip0_2001_4)"><path fill-rule="evenodd" clip-rule="evenodd" d="M90.3079 44.9285H85V16H96.4922V21.3266H90.2997L90.3079 44.9285ZM108.552 16H120.929V21.3266H114.077V26.9084H119.385V32.235H114.077V39.6112H121.371V44.9378H108.552V16ZM143.48 32.235H138.397V44.9189H132.872V16H138.397V26.9084H143.48V16H148.788V44.9285H143.48V32.235ZM160.772 16H173.149V21.3266H166.297V26.9084H171.605V32.235H166.297V39.6112H173.591V44.9378H160.772V16ZM195.033 24.3678C195.033 23.055 194.256 21.3266 193.045 21.3266H190.575V30.7145H193.079C194.298 30.7145 195.065 28.2589 195.065 27.1634L195.033 24.3678ZM194.363 35.8334H190.575V44.9662H185.05V16H194.114C194.948 16.0195 195.771 16.2258 196.534 16.6069C197.296 16.988 197.986 17.5364 198.561 18.2204C199.135 18.9044 199.585 19.7105 199.883 20.5922C200.182 21.4739 200.323 22.4136 200.298 23.3573V27.9284C200.332 31.1112 198.745 35.8334 194.363 35.8334ZM217.232 23.6595L215.463 34.3128H219.001L217.232 23.6595ZM219.886 39.1391H214.577L213.694 44.9757H208.168L213.694 16H220.771L226.296 44.9285H220.771L219.886 39.1391ZM249.381 44.9757H235.643V16H241.168V39.6112H246.034V16H251.559V39.6112H253.77V50H249.348L249.381 44.9757ZM274.677 29.4961L269.152 41.9251V44.9662H263.626V16H269.152V31.4795L274.677 19.0506V16H280.201V44.9285H274.677V29.4961ZM301.475 21.3739H298.82C297.862 21.3739 297.052 22.8095 297.052 23.6595V26.9555C297.052 27.9 297.753 29.9968 298.596 29.9968H301.467L301.475 21.3739ZM301.475 44.985V34.7757H299.705L296.167 44.9285H290.2L295.064 33.51C295.064 33.51 291.727 31.8195 291.727 26.6628V22.885C291.727 18.9466 294.156 16.0378 298.137 16.0378H307V44.9662L301.475 44.985Z" fill="#FEFEFE"/><path d="M19.6956 49.413C15.3958 44.6442 13.0109 38.4521 13 32.0288C12.9892 25.6056 15.3532 19.4055 19.6369 14.6224L30.5365 25.5312V38.5545L19.6956 49.413ZM47.4811 56.6125V37.6398H33.3787V26.3367H64.4005C66.7483 36.8091 62.4219 51.0659 47.4811 56.6125ZM47.4811 23.5507V7.43107C51.2197 8.70788 54.6167 10.8245 57.4114 13.6187C60.2059 16.4128 62.3244 19.8104 63.6039 23.5507H47.4811ZM32.4899 23.5507L21.5904 12.6421C26.4145 8.31641 32.6786 5.94931 39.1554 6.00455C41.0215 5.96483 42.8838 6.18512 44.6891 6.65907V23.5507H32.4899ZM21.5988 51.3175L32.4984 40.4929H44.6891V57.3846C40.6355 58.2803 36.427 58.1971 32.4119 57.1423C28.3966 56.087 24.6902 54.0905 21.5988 51.3175Z" fill="#FEFEFE"/></g><defs><clipPath id="clip0_2001_4"><rect width="294" height="52" fill="white" transform="translate(13 6)"/></clipPath></defs></svg>