<svg width="70" height="69" fill="none" xmlns="http://www.w3.org/2000/svg"><path d="M0.5 33.12C0.5 17.5071 0.5 9.70064 5.35031 4.85031C10.2006 0 18.0071 0 33.62 0H36.38C51.9929 0 59.7994 0 64.6497 4.85031C69.5 9.70064 69.5 17.5071 69.5 33.12V35.88C69.5 51.4929 69.5 59.2994 64.6497 64.1497C59.7994 69 51.9929 69 36.38 69H33.62C18.0071 69 10.2006 69 5.35031 64.1497C0.5 59.2994 0.5 51.4929 0.5 35.88V33.12Z" fill="#1A1A1A"/><path d="M36.2144 44.4865C36.4838 44.7561 36.6351 45.1216 36.6351 45.5027C36.6351 45.8838 36.4838 46.2493 36.2144 46.5188L34.4283 48.3157C32.5395 50.2033 29.9781 51.2633 27.3077 51.2625C24.6373 51.2617 22.0767 50.2 20.189 48.3112C18.3013 46.4223 17.2413 43.861 17.2422 41.1906C17.243 38.5202 18.3046 35.9595 20.1935 34.0719L24.5276 29.7378C26.3418 27.9221 28.7814 26.8683 31.3471 26.7921C33.9128 26.716 36.4106 27.6232 38.3294 29.3281C38.4709 29.4536 38.5864 29.6058 38.6692 29.776C38.7519 29.9462 38.8004 30.1309 38.8117 30.3198C38.8231 30.5087 38.7971 30.698 38.7353 30.8768C38.6735 31.0557 38.5771 31.2206 38.4515 31.3622C38.326 31.5038 38.1738 31.6192 38.0037 31.702C37.8335 31.7847 37.6487 31.8332 37.4598 31.8445C37.2709 31.8559 37.0817 31.8299 36.9028 31.7681C36.724 31.7063 36.5591 31.6099 36.4175 31.4844C35.047 30.2673 33.2634 29.6198 31.4314 29.6743C29.5994 29.7287 27.8574 30.481 26.5616 31.7772L22.2276 36.1059C20.8794 37.4541 20.122 39.2826 20.122 41.1893C20.122 43.0959 20.8794 44.9244 22.2276 46.2726C23.5758 47.6208 25.4043 48.3782 27.3109 48.3782C29.2175 48.3782 31.0461 47.6208 32.3943 46.2726L34.1804 44.4865C34.3139 44.3529 34.4724 44.2469 34.6469 44.1745C34.8214 44.1022 35.0085 44.0649 35.1974 44.0649C35.3863 44.0649 35.5734 44.1022 35.7479 44.1745C35.9224 44.2469 36.0809 44.3529 36.2144 44.4865ZM48.8069 19.6897C46.9178 17.8048 44.3581 16.7462 41.6895 16.7462C39.0209 16.7462 36.4612 17.8048 34.5721 19.6897L32.786 21.4776C32.5165 21.7473 32.3652 22.113 32.3654 22.4943C32.3655 22.8756 32.5172 23.2412 32.7869 23.5107C33.0566 23.7802 33.4224 23.9315 33.8037 23.9314C34.185 23.9312 34.5506 23.7796 34.8201 23.5098L36.6062 21.7237C37.9543 20.3755 39.7829 19.6181 41.6895 19.6181C43.5961 19.6181 45.4247 20.3755 46.7729 21.7237C48.1211 23.0719 48.8785 24.9005 48.8785 26.8071C48.8785 28.7137 48.1211 30.5423 46.7729 31.8905L42.4388 36.2281C41.1423 37.5236 39.4 38.2749 37.568 38.3283C35.7359 38.3818 33.9527 37.7333 32.583 36.5156C32.297 36.2621 31.9221 36.1325 31.5406 36.1554C31.1592 36.1783 30.8024 36.3519 30.5489 36.6378C30.2954 36.9237 30.1658 37.2987 30.1887 37.6801C30.2116 38.0616 30.3851 38.4183 30.6711 38.6719C32.5894 40.3772 35.0869 41.2851 37.6526 41.2096C40.2183 41.1341 42.6581 40.081 44.4729 38.2658L48.8069 33.9317C50.6929 32.0424 51.7522 29.482 51.7522 26.8125C51.7522 24.143 50.6929 21.5825 48.8069 19.6933V19.6897Z" fill="white"/></svg>