<svg width="37" height="37" viewBox="0 0 37 37" fill="none" xmlns="http://www.w3.org/2000/svg">
<path d="M24.2812 13.875H27.1719C27.9385 13.875 28.6738 14.1795 29.2159 14.7216C29.758 15.2637 30.0625 15.999 30.0625 16.7656V30.6406C30.0625 31.4073 29.758 32.1425 29.2159 32.6846C28.6738 33.2267 27.9385 33.5312 27.1719 33.5312H9.82812C9.06148 33.5312 8.32624 33.2267 7.78414 32.6846C7.24205 32.1425 6.9375 31.4073 6.9375 30.6406V16.7656C6.9375 15.999 7.24205 15.2637 7.78414 14.7216C8.32624 14.1795 9.06148 13.875 9.82812 13.875H12.7188M24.2812 9.25L18.5 3.46875M18.5 3.46875L12.7188 9.25M18.5 3.46875V23.1973" stroke="currentColor" stroke-width="2" stroke-linecap="round" stroke-linejoin="round"/>
</svg>
