<svg width="15" height="15" viewBox="0 0 15 15" fill="none" xmlns="http://www.w3.org/2000/svg">
<path d="M9.30699 7.3625L14.1676 2.5005C14.2989 2.37366 14.4037 2.22193 14.4758 2.05418C14.5478 1.88642 14.5857 1.70599 14.5873 1.52342C14.5889 1.34085 14.5541 1.15979 14.485 0.990809C14.4159 0.821827 14.3138 0.668305 14.1847 0.539203C14.0556 0.4101 13.902 0.308002 13.7331 0.238866C13.5641 0.16973 13.383 0.13494 13.2004 0.136527C13.0179 0.138113 12.8374 0.176044 12.6697 0.248107C12.5019 0.320169 12.3502 0.424919 12.2234 0.556246L7.36136 5.41687L2.50074 0.556246C2.3739 0.424919 2.22218 0.320169 2.05442 0.248107C1.88667 0.176044 1.70624 0.138113 1.52367 0.136527C1.3411 0.13494 1.16004 0.16973 0.991053 0.238866C0.822071 0.308002 0.668549 0.4101 0.539447 0.539203C0.410345 0.668305 0.308246 0.821827 0.23911 0.990809C0.169974 1.15979 0.135184 1.34085 0.136771 1.52342C0.138357 1.70599 0.176288 1.88642 0.248351 2.05418C0.320413 2.22193 0.425164 2.37366 0.55649 2.5005L5.41712 7.36112L0.55649 12.2231C0.425164 12.35 0.320413 12.5017 0.248351 12.6694C0.176288 12.8372 0.138357 13.0176 0.136771 13.2002C0.135184 13.3828 0.169974 13.5638 0.23911 13.7328C0.308246 13.9018 0.410345 14.0553 0.539447 14.1844C0.668549 14.3135 0.822071 14.4156 0.991053 14.4848C1.16004 14.5539 1.3411 14.5887 1.52367 14.5871C1.70624 14.5855 1.88667 14.5476 2.05442 14.4755C2.22218 14.4034 2.3739 14.2987 2.50074 14.1674L7.36136 9.30675L12.2234 14.1674C12.3502 14.2987 12.5019 14.4034 12.6697 14.4755C12.8374 14.5476 13.0179 14.5855 13.2004 14.5871C13.383 14.5887 13.5641 14.5539 13.7331 14.4848C13.902 14.4156 14.0556 14.3135 14.1847 14.1844C14.3138 14.0553 14.4159 13.9018 14.485 13.7328C14.5541 13.5638 14.5889 13.3828 14.5873 13.2002C14.5857 13.0176 14.5478 12.8372 14.4758 12.6694C14.4037 12.5017 14.2989 12.35 14.1676 12.2231L9.30699 7.3625Z" fill="currentColor"/>
</svg>
