<svg xmlns="http://www.w3.org/2000/svg" width="32" height="32" fill="none">
  <g clip-path="url(#a)">
    <path fill="currentColor" fill-rule="evenodd" d="M26.37 5.9a2 2 0 0 1 2.75 2.17L26.1 26.42a2.64 2.64 0 0 1-3.86 1.9 77.93 77.93 0 0 1-5.19-3.06c-.9-.6-3.68-2.5-3.34-3.84.3-1.16 4.96-5.5 7.63-8.09 1.04-1.01.56-1.6-.67-.66-3.07 2.31-8 5.84-9.63 6.83-1.44.87-2.18 1.02-3.08.87-1.64-.27-3.15-.69-4.39-1.2-1.67-.7-1.59-3 0-3.66l22.8-9.6Z" clip-rule="evenodd" />
  </g>
  <defs>
    <clipPath id="a">
      <path fill="currentColor" d="M0 0h32v32H0z" />
    </clipPath>
  </defs>
</svg>
