<svg width="60" height="60" viewBox="0 0 60 60" fill="none" xmlns="http://www.w3.org/2000/svg">
<path d="M9.03524 47.6154C4.51734 42.6048 2.01142 36.0986 2.00004 29.3494C1.98865 22.6003 4.47261 16.0856 8.97357 11.0599L20.4261 22.522V36.2061L9.03524 47.6154ZM38.2304 55.1803V35.245H23.4126V23.3685H56.0083C58.475 34.3721 53.9291 49.3522 38.2304 55.1803ZM38.2304 20.4412V3.50368C42.1586 4.84525 45.728 7.06924 48.6646 10.0052C51.6008 12.9411 53.8268 16.511 55.1712 20.4412H38.2304ZM22.4788 20.4412L11.0262 8.97906C16.0951 4.43392 22.677 1.94674 29.4824 2.00479C31.443 1.96305 33.3999 2.19451 35.2968 2.69251V20.4412H22.4788ZM11.035 49.6167L22.4876 38.2428H35.2968V55.9915C31.0375 56.9327 26.6156 56.8453 22.3967 55.7368C18.1778 54.6281 14.2832 52.5303 11.035 49.6167Z" fill="#252525"/>
</svg>
