<svg width="60" height="60" viewBox="0 0 60 60" fill="none" xmlns="http://www.w3.org/2000/svg">
<path d="M3 28.6714C3 16.5712 3 10.5092 6.76405 6.76054C10.5162 3 16.5838 3 28.6952 3H31.3549C43.4665 3 49.5221 3 53.2861 6.76054C57.0502 10.5211 57.0502 16.5712 57.0502 28.6714V31.3286C57.0502 43.4289 57.0502 49.4789 53.2861 53.2393C49.5221 57 43.4665 57 31.3549 57H28.6952C16.5838 57 10.5281 57 6.76405 53.2393C3 49.4789 3 43.4289 3 31.3286V28.6714Z" fill="#0077FF"/>
<path d="M29.9219 47.5121C39.6602 47.5121 47.5547 39.625 47.5547 29.8957C47.5547 20.1664 39.6602 12.2793 29.9219 12.2793C20.1836 12.2793 12.2891 20.1664 12.2891 29.8957C12.2891 39.625 20.1836 47.5121 29.9219 47.5121Z" fill="#00D9ED"/>
<path fill-rule="evenodd" clip-rule="evenodd" d="M46.3366 10.1323V13.5133H49.6732C51.5731 13.5133 52.5466 15.791 51.2286 17.1552L46.6573 21.9241C46.2534 22.3511 45.6835 22.5884 45.1018 22.5884H40.7796L36.3032 27.4047C36.6236 28.1757 36.8137 29.0301 36.8137 29.9197C36.8137 33.4905 33.9164 36.3849 30.3423 36.3849C26.7684 36.3849 23.8711 33.4905 23.8711 29.9197C23.8711 26.349 26.7684 23.4544 30.3423 23.4544C30.948 23.4544 31.5418 23.5374 32.0998 23.6917L37.2412 18.1635V14.6165C37.2412 14.0234 37.4905 13.454 37.918 13.0506L42.6914 8.55458C44.0686 7.26152 46.3247 8.23427 46.3247 10.1205L46.3366 10.1323Z" fill="white"/>
</svg>
